<svg xmlns="http://www.w3.org/2000/svg" width="720" height="720" fill="none" xmlns:v="https://vecta.io/nano"><rect width="720" height="720" rx="3" fill="#fff"/><g clip-path="url(#A)"><path d="M61 104.008C61 80.38 80.782 61.2 105.166 61.2h509.268c24.394 0 44.166 19.18 44.166 42.808V616c0 23.636-19.772 42.8-44.166 42.8H105.166C80.784 658.8 61 639.637 61 616.006V104.008z" fill="#069"/><path d="M242.605 561.312V292.27H153.18v269.042h89.425zM197.91 255.544c31.178 0 50.588-20.66 50.588-46.478-.583-26.406-19.4-46.49-49.995-46.49-30.606 0-50.595 20.083-50.595 46.487 0 25.818 19.403 46.477 49.416 46.477h.58l.007.003zm94.192 305.768h89.418v-150.23c0-8.03.584-16.08 2.946-21.817 6.462-16.072 21.175-32.71 45.885-32.71 32.35 0 45.298 24.67 45.298 60.84v143.914h89.416v-154.26c0-82.635-44.1-121.09-102.944-121.09-48.235 0-69.42 26.96-81.19 45.322h.595V292.28h-89.42c1.167 25.24-.007 269.04-.007 269.04l.002-.01z" fill="#fff"/></g><defs><clipPath id="A"><path fill="#fff" d="M61 60h597.6v600H61z"/></clipPath></defs></svg>